<mxfile host="65bd71144e" modified="2023-06-21T15:50:14.071Z" agent="Mozilla/5.0 (Macintosh; Intel Mac OS X 13_4_0) AppleWebKit/537.36 (KHTML, like Gecko) Code/1.79.2 Chrome/108.0.5359.215 Electron/22.5.7 Safari/537.36" version="21.5.0" etag="1waCKPQpp8tnNQyRUs_L" type="embed">
    <diagram id="KaWQd4T4FSkHN5kmt2I4" name="Page-1">
        <mxGraphModel dx="865" dy="1343" grid="1" gridSize="10" guides="1" tooltips="1" connect="1" arrows="1" fold="1" page="1" pageScale="1" pageWidth="827" pageHeight="1169" math="0" shadow="0">
            <root>
                <mxCell id="0"/>
                <mxCell id="1" parent="0"/>
                <mxCell id="2" value="" style="rounded=0;whiteSpace=wrap;html=1;" vertex="1" parent="1">
                    <mxGeometry x="120" y="200" width="80" height="280" as="geometry"/>
                </mxCell>
            </root>
        </mxGraphModel>
    </diagram>
</mxfile>